<?xml version="1.0" standalone="no"?>
<!DOCTYPE svg PUBLIC "-//W3C//DTD SVG 20010904//EN"
 "http://www.w3.org/TR/2001/REC-SVG-20010904/DTD/svg10.dtd">
<svg version="1.0" xmlns="http://www.w3.org/2000/svg"
 width="225.000000pt" height="225.000000pt" viewBox="0 0 225.000000 225.000000"
 preserveAspectRatio="xMidYMid meet">

<g transform="translate(0.000000,225.000000) scale(0.100000,-0.100000)"
fill="#d5d5d5" stroke="none">
<path d="M990 2239 c-117 -11 -246 -50 -365 -109 -124 -61 -207 -124 -310
-232 -187 -194 -286 -417 -304 -680 -24 -344 74 -625 299 -862 191 -202 425
-317 699 -347 408 -44 821 148 1047 487 359 539 197 1261 -357 1595 -202 121
-456 174 -709 148z m230 -139 c424 -45 759 -340 862 -757 30 -123 30 -313 0
-436 -92 -372 -367 -648 -739 -739 -113 -27 -300 -29 -418 -4 -310 68 -580
289 -700 575 -123 293 -101 619 62 891 159 269 444 443 773 474 19 1 42 3 50
4 8 1 58 -3 110 -8z"/>
<path d="M714 1685 c-18 -12 -19 -29 -19 -223 0 -197 1 -212 21 -239 11 -15
35 -35 53 -43 l32 -15 -7 -265 c-4 -146 -7 -275 -7 -288 2 -58 81 -84 124 -41
22 22 22 24 15 308 l-7 286 32 15 c41 19 68 55 79 106 11 44 13 353 4 378 -8
21 -60 21 -68 0 -3 -9 -6 -69 -6 -134 0 -123 -8 -148 -44 -134 -18 7 -17 0
-16 154 0 63 -4 121 -9 128 -4 8 -19 12 -32 10 -24 -3 -24 -4 -27 -140 -2
-105 -6 -139 -17 -148 -12 -10 -18 -10 -30 0 -12 10 -15 39 -15 146 0 120 -2
134 -19 143 -13 7 -24 6 -37 -4z"/>
<path d="M1295 1680 c-32 -13 -72 -61 -96 -115 -16 -36 -24 -76 -27 -146 -6
-124 13 -190 74 -258 l43 -48 3 -260 c3 -240 5 -263 22 -282 36 -39 100 -23
119 30 3 9 1 128 -4 265 -9 229 -8 250 7 259 94 55 128 134 122 280 -6 139
-48 228 -130 271 -29 15 -101 18 -133 4z"/>
</g>
</svg>
